<?xml version="1.0" standalone="no"?>
<!DOCTYPE svg PUBLIC "-//W3C//DTD SVG 20010904//EN"
 "http://www.w3.org/TR/2001/REC-SVG-20010904/DTD/svg10.dtd">
<svg version="1.0" xmlns="http://www.w3.org/2000/svg"
 width="68.000000pt" height="46.000000pt" viewBox="0 0 68.000000 46.000000"
 preserveAspectRatio="xMidYMid meet">
<metadata>
Created by potrace 1.13, written by Peter Selinger 2001-2015
</metadata>
<g transform="translate(0.000000,46.000000) scale(0.100000,-0.100000)"
fill="#000000" stroke="none">
<path d="M0 375 c0 -90 0 -91 53 -86 9 1 17 -2 17 -7 0 -5 10 -12 23 -15 12
-2 29 -7 38 -11 13 -6 15 -1 14 24 -1 24 3 32 22 36 12 4 23 10 23 14 0 4 11
10 25 12 13 3 22 1 19 -3 -3 -5 -12 -9 -20 -9 -8 0 -14 -5 -14 -11 0 -6 9 -8
20 -4 11 3 25 3 32 -2 13 -8 80 -12 72 -4 -2 2 3 13 13 23 16 17 17 17 48 -7
32 -24 33 -24 50 -5 10 11 25 20 33 20 8 0 27 11 44 25 31 27 47 23 91 -19 16
-15 17 -20 6 -27 -9 -6 1 -9 29 -9 l42 0 0 75 0 76 -152 -3 c-128 -3 -153 -5
-153 -18 0 -8 -4 -18 -10 -22 -6 -5 -5 -8 4 -8 7 0 11 -6 8 -14 -3 -8 -1 -17
6 -20 7 -2 5 -5 -4 -5 -30 -2 -71 40 -66 65 l4 24 -158 0 -159 0 0 -85z"/>
</g>
</svg>
